<svg width="600" height="300" viewBox="0 0 600 300" fill="none" xmlns="http://www.w3.org/2000/svg">
<path d="M60.9456 150.487C61.1544 148.881 61.8631 147.21 62.7638 146.201C63.9224 144.903 64.7832 144.284 66.0542 143.835C68.7666 142.875 71.715 143.525 73.8644 145.557C75.3128 146.927 76.0698 148.339 76.5538 150.576C76.8307 151.856 76.5458 153.779 75.8373 155.411C75.5313 156.115 75.3203 156.402 74.2759 157.533C73.2232 158.674 72.9634 158.897 72.2535 159.273C70.8504 160.016 70.0262 160.235 68.6316 160.235C66.8171 160.235 65.0257 159.602 63.6949 158.49C62.7412 157.693 62.0419 156.645 61.4191 155.079C61.0124 154.057 60.7775 151.778 60.9456 150.487Z" fill="black"/>
<path d="M76.0941 81.857C76.2598 79.6324 77.3021 77.6547 79.0019 76.339C80.252 75.3718 81.4098 74.9916 83.0809 75.0001C84.7889 75.0087 85.9219 75.3705 87.2969 76.3463C88.8236 77.4301 90.0227 79.1745 90.3686 80.8154C90.4289 81.1019 90.5211 81.5024 90.5734 81.7058C90.6821 82.1286 90.62 84.1266 90.4763 84.8255C90.1911 86.213 89.7291 87.0911 88.7006 88.2014C87.5538 89.4394 86.5487 90.0714 85.0112 90.521C84.306 90.7274 81.8073 90.7516 81.0687 90.5593C79.707 90.2052 78.0553 88.9719 77.2757 87.7279C76.7863 86.9467 76.3677 85.9064 76.1918 85.0338C76.0565 84.3622 76.0128 82.9454 76.0941 81.857Z" fill="black"/>
<path d="M70.6764 177.421C70.9702 175.77 71.6305 174.687 73.0325 173.557C74.1258 172.676 75.2038 172.317 76.757 172.317C77.9644 172.317 78.6244 172.474 79.5836 172.987C80.3674 173.407 81.4277 174.327 81.8466 174.952C82.8768 176.486 83.3651 178.933 82.9364 180.412C82.8571 180.686 82.743 181.074 82.6833 181.275C82.5669 181.664 82.0737 182.544 81.7761 182.892C81.4581 183.265 80.4582 184.157 80.0627 184.421C78.9301 185.178 77.2529 185.56 75.9858 185.349C73.3984 184.918 71.4889 183.189 70.7958 180.65C70.5863 179.882 70.5265 178.264 70.6764 177.421Z" fill="black"/>
<path d="M96.1316 217.73C96.188 217.586 96.2936 217.32 96.3664 217.137C96.518 216.757 97.1264 216.157 97.6181 215.903C97.8255 215.796 98.3153 215.708 98.8967 215.673C99.7811 215.62 99.8716 215.634 100.369 215.898C100.954 216.21 101.459 216.784 101.76 217.48C102.051 218.154 102.033 219.253 101.72 219.932C101.219 221.016 100.798 221.407 99.7646 221.748C98.8891 222.037 98.0026 221.88 97.232 221.3C96.3721 220.653 95.7614 218.671 96.1316 217.73Z" fill="black"/>
<path d="M76.7179 199.904C77.0046 199.027 77.6939 198.377 78.7011 198.035C79.1944 197.867 79.3151 197.861 79.7862 197.984C80.6125 198.2 81.031 198.552 81.3604 199.31C81.8819 200.509 81.6674 201.922 80.8375 202.753C80.4699 203.122 80.349 203.179 79.7959 203.243C78.1757 203.432 77.1935 202.923 76.7637 201.674C76.5357 201.012 76.5224 200.503 76.7179 199.904Z" fill="black"/>
<path d="M87.8275 186.649C88.2698 185.679 88.8047 185.29 89.8452 185.181C90.9991 185.061 91.7972 185.481 92.3171 186.483C92.572 186.973 92.6146 187.16 92.6134 187.785C92.6105 189.457 91.532 190.694 90.0756 190.693C89.4035 190.693 88.6653 190.37 88.2501 189.894C87.5843 189.132 87.3868 187.615 87.8275 186.649Z" fill="black"/>
<path d="M58.3953 171.536C58.7677 170.287 59.4255 169.695 60.6095 169.544C62.4196 169.313 63.7948 171.18 63.195 173.054C63.0139 173.619 62.8516 173.835 62.2558 174.297C61.8474 174.615 61.7081 174.662 61.0901 174.696C59.9039 174.761 59.14 174.315 58.6569 173.275C58.3043 172.516 58.2368 172.067 58.3953 171.536Z" fill="black"/>
<path d="M67.9439 101.448C68.3708 100.335 68.9797 99.7374 70.1456 99.2883C71.0991 98.9208 71.9372 98.9539 72.7326 99.3903C73.6088 99.8711 74.108 100.438 74.4562 101.348C74.8033 102.254 74.8305 102.957 74.553 103.834C74.1665 105.056 73.3328 105.94 72.0868 106.452C71.285 106.782 70.8498 106.75 69.8457 106.293C68.8358 105.833 68.3291 105.274 67.9471 104.197C67.5644 103.119 67.5637 102.439 67.9439 101.448Z" fill="black"/>
<path d="M75.8914 134.411C76.2334 133.408 77.1408 132.454 77.9731 132.224C78.5553 132.063 79.921 132.086 80.3869 132.265C81.5584 132.714 82.3263 133.78 82.5988 135.336C82.7436 136.162 82.2527 137.553 81.5371 138.343C80.8781 139.071 80.1035 139.401 79.0566 139.401C77.5961 139.401 76.661 138.765 76.0159 137.332C75.6654 136.554 75.6095 135.239 75.8914 134.411Z" fill="black"/>
<path d="M53.6472 135.075C53.8516 134.443 54.1142 134.025 54.5929 133.568C55.1812 133.007 55.7157 132.8 56.5874 132.798C57.239 132.797 57.4371 132.841 57.908 133.093C58.9662 133.66 59.6446 134.861 59.6503 136.177C59.6547 137.19 59.0675 138.408 58.3294 138.919C57.5816 139.436 56.3295 139.549 55.4263 139.182C53.9898 138.597 53.1412 136.638 53.6472 135.075Z" fill="black"/>
<path d="M63.8588 78.2115C63.9836 77.9251 64.2365 77.5347 64.4209 77.3441C64.7212 77.0339 64.9111 76.9448 65.7236 76.7319C65.998 76.66 66.9073 76.8781 67.3719 77.127C68.5088 77.7363 69.179 79.5716 68.6616 80.6592C68.2212 81.5854 67.8272 81.9359 66.8569 82.2649C66.2788 82.4609 65.9037 82.4451 65.1416 82.1926C64.6646 82.0343 63.8697 81.1248 63.7297 80.5767C63.5487 79.8682 63.6076 78.7879 63.8588 78.2115Z" fill="black"/>
<path d="M65.4869 124.914C65.6468 124.428 65.9543 123.889 66.2364 123.601C66.6331 123.196 67.12 123.048 68.111 123.031C69.4195 123.008 69.8054 123.258 70.2845 124.435C70.9079 125.968 70.3027 127.609 68.8574 128.304C68.185 128.627 67.9165 128.636 67.2318 128.358C66.5616 128.085 65.8353 127.252 65.5532 126.432C65.3261 125.772 65.312 125.446 65.4869 124.914Z" fill="black"/>
<path d="M76.0937 114.449C76.3463 113.126 76.7888 112.291 77.8592 111.115C79.2314 109.609 80.4419 109.094 82.6149 109.094C84.7104 109.094 86.2914 109.958 87.7127 111.88C88.5308 112.987 88.949 113.996 89.2657 115.629C89.5141 116.908 90.0907 118.621 90.484 119.249C90.7911 119.739 91.6159 120.643 92.0716 120.988C92.3223 121.178 92.7401 121.36 93.1256 121.448C95.0861 121.893 96.6063 121.311 97.8182 119.649C98.5637 118.628 98.8843 117.967 99.3281 116.541C99.6725 115.435 99.6849 115.345 99.6853 113.937C99.6859 112.416 99.6364 112.164 99.0119 110.5C98.729 109.746 97.2126 107.544 95.9904 106.112C94.7187 104.622 93.7458 102.835 93.2759 101.126C92.8995 99.7574 92.846 97.7341 93.1421 96.0696C93.5672 93.6799 94.2699 92.1983 95.7514 90.5691C97.3301 88.8332 99.1731 87.7008 101.19 87.2276C101.48 87.1594 101.998 87.0367 102.34 86.9547C103.262 86.7338 104.325 86.6676 104.975 86.7901C107.841 87.3305 108.894 87.7469 110.598 89.0122C112.793 90.6424 114.311 93.1572 114.892 96.1265C115.053 96.9512 115.059 99.7101 114.9 100.449C114.717 101.304 114.491 102.154 114.416 102.272C114.38 102.329 114.271 102.61 114.174 102.897C113.586 104.634 112.047 106.441 109.143 108.804C106.674 110.813 105.944 111.586 105.424 112.74C104.129 115.614 104.448 118.549 106.292 120.724C106.846 121.377 107.521 121.82 108.377 122.093C109.269 122.378 109.837 122.382 110.766 122.109C112.424 121.623 113.634 120.663 114.87 118.853C115.719 117.61 115.659 117.721 116.834 115.239C117.39 114.065 118.026 112.776 118.247 112.375C118.468 111.974 118.719 111.51 118.806 111.344C118.893 111.177 119.164 110.749 119.407 110.392C119.651 110.035 119.992 109.515 120.165 109.236C120.513 108.675 121.569 107.224 122.617 105.865C123.363 104.899 125.579 102.515 126.342 101.857C126.606 101.631 126.996 101.279 127.208 101.077C128.665 99.6916 131.004 98.0115 133.056 96.8771C134.224 96.2309 135.386 95.6578 135.529 95.6578C135.593 95.6578 135.687 95.6155 135.737 95.5636C135.819 95.4793 137.747 94.7216 138.224 94.5869C138.329 94.5571 138.911 94.3698 139.517 94.1711C140.123 93.9719 140.813 93.7592 141.05 93.6982C142.379 93.3561 142.829 93.2501 143.829 93.0447C144.435 92.9201 145.082 92.7983 145.266 92.7735C147.781 92.4369 149.083 92.289 150.201 92.2131C150.939 92.1631 151.642 92.0958 151.765 92.0636C152.15 91.9615 159.841 92.0059 160.693 92.1148C161.141 92.1723 161.798 92.2194 162.153 92.2198C162.508 92.2202 163.629 92.3344 164.644 92.4733C165.659 92.6123 166.662 92.7485 166.873 92.776C168.815 93.0303 173.49 94.05 175.066 94.5625C175.461 94.691 176.108 94.9016 176.503 95.0308C177.343 95.3051 179.938 96.2396 180.315 96.404C180.458 96.4661 180.661 96.5567 180.767 96.605C180.872 96.6535 181.303 96.8375 181.725 97.0139C183.055 97.5707 186.457 99.3739 187.761 100.214C189.27 101.186 191.315 102.765 192.334 103.746C192.879 104.271 195.266 106.868 195.599 107.299C196.64 108.646 197.73 110.413 198.338 111.741C199.139 113.491 199.217 113.693 199.685 115.239C200.299 117.267 200.641 119.36 200.718 121.548C200.769 122.983 200.672 124.047 200.258 126.622C200.007 128.183 198.936 130.982 198.044 132.406C196.643 134.646 194.757 136.727 192.983 137.99C190.821 139.529 189.269 140.18 186.372 140.761C185.461 140.943 183.492 140.999 182.509 140.87C181.501 140.738 180.311 140.501 179.809 140.333C177.132 139.44 175.695 138.56 174.175 136.882C173.072 135.664 172.675 135.047 172.286 133.949C171.731 132.383 171.991 130.865 172.931 130.176C173.098 130.054 173.528 129.823 173.887 129.663C175.279 129.043 175.933 128.633 176.538 128.006C177.639 126.864 178.218 125.653 178.512 123.878C178.617 123.244 178.725 122.686 178.753 122.637C178.781 122.588 178.675 121.932 178.519 121.178C178.106 119.186 177.538 118.033 176.311 116.691C174.668 114.893 172.373 113.421 169.748 112.482C168.118 111.899 166.954 111.634 164.334 111.249C161.564 110.842 156.841 111.414 154.225 112.473C152.02 113.366 149.733 114.949 148.333 116.554C147.559 117.44 146.914 118.473 146.356 119.718C146.163 120.148 145.964 120.589 145.913 120.698C145.862 120.808 145.696 121.434 145.543 122.09C145.298 123.147 145.266 123.462 145.266 124.878C145.266 126.304 145.296 126.6 145.547 127.653C146.028 129.681 146.52 130.761 147.838 132.686C149.201 134.675 151.449 136.736 154.321 138.628C155.575 139.453 159.087 141.348 160.369 141.891C160.64 142.005 161.049 142.191 161.28 142.305C161.837 142.58 163.429 143.257 163.517 143.257C163.555 143.257 163.722 143.324 163.888 143.404C164.054 143.485 164.686 143.747 165.292 143.987C165.898 144.226 166.61 144.511 166.873 144.62C167.137 144.729 167.913 145.032 168.598 145.294C170.336 145.959 171.138 146.276 171.472 146.433C171.631 146.507 172.299 146.788 172.958 147.057C174.29 147.602 175.397 148.08 175.976 148.36C176.187 148.462 176.639 148.673 176.982 148.829C177.641 149.128 181.746 151.322 182.396 151.721C182.606 151.851 183.038 152.116 183.354 152.31C186.615 154.313 190.084 157.201 192.986 160.332C193.813 161.224 194.698 162.258 194.952 162.631C195.207 163.003 195.615 163.565 195.859 163.881C196.588 164.82 198.052 166.994 198.269 167.458C198.381 167.696 198.624 168.148 198.809 168.463C199.241 169.196 200.179 171.159 200.507 172.018C200.647 172.383 200.841 172.869 200.938 173.098C201.173 173.652 201.607 174.948 201.607 175.094C201.607 175.158 201.668 175.337 201.742 175.492C201.815 175.647 201.992 176.25 202.134 176.831C202.275 177.413 202.452 178.124 202.525 178.41C202.803 179.488 203.161 181.726 203.341 183.514C203.506 185.138 203.554 188.464 203.431 189.711C203.243 191.628 203.052 193.149 202.908 193.878C202.834 194.25 202.733 194.789 202.684 195.076C202.538 195.918 202.017 197.934 201.742 198.721C201.601 199.122 201.41 199.684 201.316 199.971C200.914 201.192 200.084 203.074 199.066 205.075C198.576 206.038 197.966 207.009 197.173 208.092C196.74 208.684 196.084 209.583 195.717 210.09C195.152 210.869 192.903 213.302 191.738 214.394C191.405 214.706 191.256 214.835 189.774 216.088C188.689 217.004 186.371 218.565 184.758 219.464C182.901 220.5 179.38 222.056 178.084 222.414C177.926 222.458 177.689 222.542 177.557 222.601C177.425 222.659 177.145 222.757 176.934 222.818C176.723 222.879 176.249 223.019 175.88 223.128C173.762 223.759 170.516 224.428 168.694 224.612C168.167 224.664 167.52 224.758 167.256 224.82C166.545 224.986 158.158 225.071 156.672 224.926C153.294 224.598 150.947 224.182 148.237 223.431C146.129 222.846 146.393 222.935 143.925 221.993C143.159 221.701 141.667 221.035 141.582 220.948C141.532 220.896 141.438 220.854 141.372 220.854C141.178 220.854 139.664 220.04 138.176 219.136C135.538 217.533 133.183 215.64 131.372 213.669C129.508 211.639 128.179 209.908 127.455 208.564C127.223 208.134 126.917 207.595 126.774 207.366C126.496 206.918 125.84 205.546 125.579 204.866C125.491 204.637 125.383 204.356 125.338 204.241C125.293 204.127 125.214 203.892 125.161 203.721C125.109 203.549 124.953 203.08 124.814 202.679C124.315 201.231 123.947 199.549 123.789 197.992C123.649 196.62 123.646 192.436 123.784 191.638C124.255 188.908 124.951 186.853 126.112 184.764C127.612 182.066 130.694 179.34 133.385 178.33C135.048 177.707 136.602 177.424 138.384 177.423C139.157 177.422 139.998 177.464 140.253 177.518C140.507 177.571 140.995 177.669 141.338 177.735C144.898 178.427 148.64 181.643 149.581 184.821C149.922 185.973 150.01 187.076 149.831 187.942C149.657 188.777 149.411 189.222 148.992 189.457C148.583 189.688 147.419 190.104 146.803 190.24C145.732 190.477 144.291 191.538 143.65 192.56C143.264 193.176 142.655 194.465 142.462 195.076C142.371 195.362 142.231 196.011 142.151 196.517C142.021 197.333 142.02 197.53 142.145 198.236C142.476 200.117 143.125 201.358 144.452 202.64C145.679 203.828 147.831 205.139 149.559 205.752C155.859 207.987 163.999 207.387 169.271 204.298C171.719 202.863 173.278 201.357 174.757 198.998C175.208 198.28 175.935 196.545 176.183 195.596C176.77 193.349 176.8 189.819 176.249 187.732C176.06 187.018 175.636 185.736 175.543 185.597C175.504 185.54 175.309 185.165 175.109 184.764C174.462 183.466 173.854 182.598 172.845 181.531C170.948 179.525 169.108 178.238 166.011 176.749C165.09 176.306 163.249 175.613 161.987 175.234C161.565 175.107 161.134 174.965 161.028 174.918C160.776 174.805 159.132 174.368 158.106 174.142C157.658 174.044 157.033 173.901 156.717 173.826C156.4 173.751 155.861 173.64 155.519 173.58C155.176 173.52 154.522 173.399 154.064 173.31C153.607 173.223 153.104 173.151 152.946 173.151C152.788 173.151 152.451 173.107 152.196 173.053C151.234 172.849 150.447 172.725 149.147 172.57C147.859 172.416 147.246 172.351 144.931 172.117C144.351 172.058 143.467 171.938 142.967 171.848C142.053 171.685 140.404 171.444 139.422 171.329C139.132 171.295 138.679 171.225 138.415 171.172C138.152 171.119 137.441 170.977 136.834 170.856C133.32 170.155 132.287 169.883 129.888 169.028C127.614 168.218 125.811 167.356 123.851 166.143C122.318 165.195 120.548 163.83 119.52 162.806C118.965 162.253 118.809 162.313 118.621 163.156C118.468 163.842 118.29 167.252 118.317 168.984C118.325 169.471 118.35 173.573 118.372 178.099C118.397 183.105 118.455 186.817 118.522 187.577C118.582 188.264 118.674 189.571 118.726 190.481C118.778 191.392 118.866 192.446 118.922 192.825C118.977 193.203 119.065 193.841 119.117 194.242C119.244 195.213 119.824 198.224 120.06 199.138C120.459 200.676 120.536 200.939 120.882 201.95C121.078 202.523 121.3 203.179 121.376 203.408C121.577 204.013 122.806 206.74 123.206 207.47C124.854 210.476 126.629 212.785 128.93 214.921C129.478 215.429 129.888 215.889 129.888 215.995C129.888 216.194 129.85 216.22 128.553 216.896C127.693 217.344 126.832 217.95 125.145 219.294C123.859 220.318 122.036 221.271 120.566 221.686C119.528 221.979 117.173 222.163 116.33 222.017C115.987 221.957 115.362 221.856 114.94 221.792C112.327 221.394 109.572 219.606 107.64 217.053C107.222 216.501 106.556 215.413 106.556 215.283C106.556 215.257 106.451 214.988 106.322 214.686C105.953 213.823 105.627 212.76 104.957 210.23C104.381 208.058 103.838 206.964 102.822 205.93C102.08 205.175 101.288 204.71 100.743 204.71C100.248 204.71 99.7 205.13 98.7572 206.233C98.0786 207.028 96.8901 208.029 96.3723 208.243C95.8361 208.464 94.2567 208.687 93.7301 208.616C92.2976 208.421 91.3524 207.818 90.7384 206.706C90.1517 205.643 89.9307 204.747 89.9384 203.46C89.9453 202.333 90.1005 201.641 90.5809 200.596C90.9513 199.79 92.7249 198.155 93.425 197.974C93.5591 197.94 93.7118 197.877 93.7645 197.836C93.8172 197.794 94.2915 197.609 94.8185 197.425C96.9137 196.691 97.7586 195.805 98.4245 193.644C98.6999 192.751 98.707 192.676 98.6756 191.036C98.6505 189.72 98.588 189.057 98.3927 188.037C98.1378 186.706 97.9709 185.972 97.8372 185.597C97.7963 185.483 97.6248 184.897 97.4558 184.295C96.7803 181.89 94.9 177.521 93.713 175.598C93.5716 175.369 93.1413 174.643 92.7567 173.984C92.3723 173.325 91.7949 172.411 91.4737 171.953C90.8149 171.012 88.9677 168.997 88.1326 168.307C87.3804 167.686 86.1208 167.046 85.059 166.746C83.9216 166.425 83.3739 166.165 82.6447 165.599C81.6003 164.789 81.0151 163.431 81.0902 161.991C81.1251 161.32 81.1793 161.114 81.4317 160.686C81.5967 160.407 81.8556 160.049 82.0072 159.891C82.3351 159.55 83.4448 159.089 83.9404 159.089C84.2915 159.089 84.9683 159.292 85.5365 159.567C85.8636 159.725 87.0832 160.996 88.0559 162.193C88.9369 163.276 89.552 163.716 90.707 164.089C91.4322 164.323 92.6605 164.051 93.9064 163.381C94.9191 162.836 95.7754 161.901 96.2985 160.768C97.0334 159.177 97.0187 158.178 96.2391 156.755C95.7658 155.89 95.6104 155.749 93.5495 154.32C93.0302 153.96 92.4996 153.56 92.3704 153.432C92.2412 153.303 91.9756 153.066 91.78 152.906C91.3166 152.524 90.088 150.777 89.7088 149.96C89.2699 149.014 88.83 147.557 88.83 147.052C88.83 146.808 88.7654 146.242 88.6862 145.792C88.5193 144.844 88.5044 144.078 88.6366 143.264C88.6885 142.945 88.7951 142.216 88.8738 141.643C89.0505 140.357 89.1759 139.762 89.6421 137.998C90.1796 135.964 90.4554 134.14 90.4533 132.633C90.4493 130.001 89.7908 127.929 88.4624 126.369C87.2867 124.989 86.0411 124.297 83.8954 123.833C80.9145 123.187 79.5175 122.578 78.2205 121.359C76.8562 120.076 76.3438 119.041 75.9937 116.862C75.8607 116.034 75.8799 115.57 76.0937 114.449ZM197.237 186.014C196.43 183.748 194.86 180.467 193.949 179.14C193.752 178.853 193.465 178.428 193.311 178.195C192.202 176.518 190.333 174.362 188.561 172.714C186.383 170.689 182.385 168.076 179.473 166.774C179.078 166.598 178.711 166.418 178.659 166.375C178.335 166.112 173.84 164.357 171.999 163.776C171.604 163.651 171.174 163.503 171.044 163.446C170.808 163.344 169.372 162.898 168.742 162.732C168.557 162.683 168.104 162.547 167.736 162.428C167.367 162.309 166.741 162.123 166.346 162.014C164.538 161.515 158.746 159.919 158.058 159.73C157.636 159.615 156.99 159.445 156.621 159.352C156.252 159.259 155.842 159.144 155.71 159.096C155.579 159.049 155.298 158.958 155.088 158.895C154.317 158.665 152.205 158.027 151.926 157.939C151.768 157.889 151.401 157.779 151.111 157.694C150.821 157.609 150.347 157.464 150.057 157.372C149.767 157.28 149.315 157.139 149.051 157.058C147.812 156.681 144.878 155.578 142.871 154.735C138.361 152.841 134.953 150.929 131.564 148.391C131.227 148.138 129.227 146.465 129.169 146.387C129.143 146.352 128.798 146.036 128.403 145.686C127.313 144.721 124.595 141.669 123.794 140.512C121.551 137.267 119.896 133.416 119.246 129.925C118.834 127.712 118.763 127.193 118.629 125.447C118.574 124.73 118.51 124.087 118.487 124.016C118.404 123.764 118.181 124.007 117.816 124.747C117.146 126.103 116.189 127.498 115.494 128.13C115.002 128.578 114.004 129.148 113.455 129.295C110.271 130.147 108.412 131.342 107.61 133.052C107.511 133.261 107.314 133.78 107.17 134.204C106.922 134.935 106.908 135.076 106.907 136.803C106.905 138.526 106.92 138.679 107.173 139.511C107.567 140.807 107.854 141.355 108.512 142.069C109.117 142.728 109.686 143.098 110.772 143.542C111.29 143.754 111.661 143.811 112.976 143.883C113.846 143.931 114.736 143.944 114.954 143.913C115.483 143.838 115.882 144.098 116.092 144.655C116.181 144.889 116.313 145.234 116.387 145.422C116.461 145.61 116.521 145.838 116.521 145.928C116.521 146.114 117.276 148.566 117.382 148.726C117.42 148.783 117.476 148.924 117.506 149.038C118.13 151.455 120.802 156.032 122.633 157.823C124.809 159.95 126.442 161.168 128.786 162.411C131.973 164.102 134.744 165.015 139.565 165.963C141.306 166.305 145.271 166.805 146.991 166.9C150.267 167.081 152.148 167.22 152.74 167.324C153.083 167.384 154.678 167.481 156.285 167.54C160.008 167.675 163.105 167.938 164.861 168.268C165.177 168.327 165.91 168.444 166.49 168.528C168.724 168.852 169.793 169.056 171.856 169.555C172.225 169.645 172.699 169.758 172.91 169.807C174.03 170.069 176.202 170.746 177.796 171.331C179.494 171.954 179.66 172.022 180.838 172.568C181.404 172.831 181.89 173.046 181.918 173.046C181.946 173.046 182.755 173.464 183.716 173.975C187.953 176.229 191.392 178.963 193.963 182.122C195.169 183.604 196.301 185.354 196.749 186.428C196.979 186.98 197.382 187.542 197.493 187.468C197.648 187.364 197.581 186.98 197.237 186.014Z" fill="black"/>
<path d="M230.476 167V132.92H239.884V167H230.476ZM257.238 167.576C254.326 167.576 251.91 167.208 249.99 166.472C248.07 165.704 246.614 164.664 245.622 163.352C244.63 162.04 244.07 160.536 243.942 158.84L253.302 158.6C253.494 159.624 253.91 160.392 254.55 160.904C255.19 161.384 256.102 161.624 257.286 161.624C258.278 161.624 259.014 161.464 259.494 161.144C260.006 160.824 260.262 160.36 260.262 159.752C260.262 159.304 260.15 158.936 259.926 158.648C259.702 158.328 259.27 158.056 258.63 157.832C258.022 157.608 257.11 157.4 255.894 157.208C252.982 156.728 250.694 156.168 249.03 155.528C247.398 154.888 246.246 154.056 245.574 153.032C244.902 151.976 244.566 150.648 244.566 149.048C244.566 146.456 245.606 144.392 247.686 142.856C249.766 141.288 252.95 140.504 257.238 140.504C259.894 140.504 262.118 140.888 263.91 141.656C265.702 142.424 267.078 143.512 268.038 144.92C269.03 146.296 269.622 147.928 269.814 149.816L260.598 150.104C260.534 149.304 260.342 148.632 260.022 148.088C259.734 147.544 259.35 147.144 258.87 146.888C258.39 146.6 257.814 146.456 257.142 146.456C256.246 146.456 255.51 146.664 254.934 147.08C254.39 147.464 254.118 148.024 254.118 148.76C254.118 149.24 254.23 149.64 254.454 149.96C254.71 150.28 255.126 150.536 255.702 150.728C256.278 150.92 257.046 151.08 258.006 151.208C260.854 151.56 263.142 152.088 264.87 152.792C266.598 153.496 267.846 154.408 268.614 155.528C269.414 156.616 269.814 157.944 269.814 159.512C269.814 161.24 269.318 162.712 268.326 163.928C267.334 165.112 265.894 166.024 264.006 166.664C262.15 167.272 259.894 167.576 257.238 167.576ZM273.547 167V141.08H281.899L282.187 147.128L281.515 146.744C281.867 145.4 282.395 144.264 283.099 143.336C283.835 142.408 284.699 141.704 285.691 141.224C286.715 140.744 287.819 140.504 289.003 140.504C291.115 140.504 292.811 141.144 294.091 142.424C295.371 143.672 296.203 145.336 296.587 147.416L295.627 147.512C295.947 145.976 296.475 144.696 297.211 143.672C297.947 142.616 298.827 141.832 299.851 141.32C300.907 140.776 302.059 140.504 303.307 140.504C305.035 140.504 306.555 140.872 307.867 141.608C309.179 142.344 310.203 143.448 310.939 144.92C311.707 146.36 312.091 148.168 312.091 150.344V167H302.779V153.08C302.779 151.256 302.555 149.896 302.107 149C301.691 148.104 300.939 147.656 299.851 147.656C299.179 147.656 298.619 147.864 298.171 148.28C297.755 148.696 297.435 149.32 297.211 150.152C296.987 150.952 296.875 151.928 296.875 153.08V167H288.715V153.08C288.715 151.256 288.507 149.896 288.091 149C287.675 148.104 286.923 147.656 285.835 147.656C285.163 147.656 284.603 147.864 284.155 148.28C283.739 148.696 283.419 149.32 283.195 150.152C282.971 150.952 282.859 151.928 282.859 153.08V167H273.547ZM324.974 167.576C322.254 167.576 320.014 166.952 318.254 165.704C316.494 164.456 315.614 162.712 315.614 160.472C315.614 158.168 316.366 156.408 317.87 155.192C319.406 153.944 321.582 153.016 324.398 152.408L332.174 150.776C332.174 149.432 331.886 148.408 331.31 147.704C330.734 147 329.934 146.648 328.91 146.648C327.822 146.648 326.974 146.92 326.366 147.464C325.79 147.976 325.422 148.744 325.262 149.768L316.046 149.48C316.558 146.344 317.918 144.072 320.126 142.664C322.334 141.224 325.262 140.504 328.91 140.504C333.134 140.504 336.286 141.416 338.366 143.24C340.446 145.064 341.486 147.832 341.486 151.544V159.128C341.486 159.96 341.614 160.504 341.87 160.76C342.158 161.016 342.542 161.144 343.022 161.144H343.55V167C343.262 167.096 342.798 167.176 342.158 167.24C341.518 167.336 340.894 167.384 340.286 167.384C339.358 167.384 338.398 167.224 337.406 166.904C336.414 166.584 335.582 165.976 334.91 165.08C334.238 164.152 333.902 162.808 333.902 161.048L334.574 161.816C334.222 163 333.646 164.024 332.846 164.888C332.046 165.752 330.99 166.424 329.678 166.904C328.398 167.352 326.83 167.576 324.974 167.576ZM327.566 161.72C328.43 161.72 329.198 161.544 329.87 161.192C330.574 160.84 331.134 160.312 331.55 159.608C331.966 158.872 332.174 157.944 332.174 156.824V155.96L327.95 157.016C327.15 157.208 326.478 157.528 325.934 157.976C325.422 158.392 325.166 158.936 325.166 159.608C325.166 160.28 325.358 160.808 325.742 161.192C326.126 161.544 326.734 161.72 327.566 161.72ZM346.297 167V141.08H355.609V167H346.297ZM346.153 138.488V131.96H355.753V138.488H346.153ZM368.748 167C366.252 167 364.316 166.376 362.94 165.128C361.564 163.88 360.876 161.848 360.876 159.032V132.92H370.188V157.976C370.188 158.872 370.396 159.512 370.812 159.896C371.228 160.248 371.82 160.424 372.588 160.424H373.98V167H368.748ZM402.522 167.768C399.386 167.768 396.714 167.272 394.506 166.28C392.298 165.288 390.586 163.88 389.37 162.056C388.154 160.232 387.466 158.072 387.306 155.576L396.666 155.144C396.826 156.264 397.146 157.224 397.626 158.024C398.106 158.792 398.746 159.384 399.546 159.8C400.378 160.184 401.402 160.376 402.618 160.376C403.578 160.376 404.394 160.28 405.066 160.088C405.738 159.864 406.25 159.528 406.602 159.08C406.954 158.632 407.13 158.072 407.13 157.4C407.13 156.792 406.97 156.264 406.65 155.816C406.362 155.336 405.77 154.92 404.874 154.568C404.01 154.184 402.714 153.816 400.986 153.464C397.882 152.824 395.37 152.088 393.45 151.256C391.53 150.392 390.122 149.288 389.226 147.944C388.362 146.6 387.93 144.888 387.93 142.808C387.93 140.696 388.474 138.84 389.562 137.24C390.65 135.64 392.218 134.392 394.266 133.496C396.314 132.6 398.778 132.152 401.658 132.152C404.698 132.152 407.242 132.664 409.29 133.688C411.338 134.712 412.922 136.12 414.042 137.912C415.194 139.704 415.882 141.784 416.106 144.152L406.842 144.536C406.778 143.48 406.522 142.584 406.074 141.848C405.626 141.112 405.018 140.552 404.25 140.168C403.514 139.752 402.618 139.544 401.562 139.544C400.218 139.544 399.178 139.816 398.442 140.36C397.706 140.904 397.338 141.624 397.338 142.52C397.338 143.224 397.514 143.816 397.866 144.296C398.25 144.776 398.858 145.176 399.69 145.496C400.554 145.816 401.722 146.104 403.194 146.36C406.554 146.936 409.21 147.72 411.162 148.712C413.114 149.704 414.49 150.888 415.29 152.264C416.122 153.64 416.538 155.224 416.538 157.016C416.538 159.224 415.978 161.144 414.858 162.776C413.77 164.376 412.17 165.608 410.058 166.472C407.978 167.336 405.466 167.768 402.522 167.768ZM432.257 167C429.345 167 427.217 166.328 425.873 164.984C424.529 163.608 423.857 161.432 423.857 158.456V134.984H433.169V157.112C433.169 158.392 433.425 159.272 433.937 159.752C434.481 160.2 435.297 160.424 436.385 160.424H439.937V167H432.257ZM419.441 147.656V141.08H439.937V147.656H419.441ZM452.341 167.576C449.621 167.576 447.509 166.728 446.005 165.032C444.533 163.304 443.797 160.888 443.797 157.784V141.08H453.109V155.672C453.109 157.336 453.333 158.552 453.781 159.32C454.229 160.056 454.933 160.424 455.893 160.424C457.013 160.424 457.861 160.024 458.437 159.224C459.013 158.392 459.301 157.048 459.301 155.192V141.08H468.613V167H460.261L459.925 158.84L460.981 158.936C460.725 161.848 459.877 164.024 458.437 165.464C456.997 166.872 454.965 167.576 452.341 167.576ZM482.78 167.576C480.636 167.576 478.78 167.032 477.212 165.944C475.676 164.824 474.476 163.256 473.612 161.24C472.78 159.192 472.364 156.792 472.364 154.04C472.364 151.288 472.796 148.904 473.66 146.888C474.524 144.84 475.74 143.272 477.308 142.184C478.876 141.064 480.7 140.504 482.78 140.504C484.7 140.504 486.3 140.888 487.58 141.656C488.86 142.424 489.836 143.48 490.508 144.824V132.92H499.82V167H490.748L490.604 163.256C489.9 164.632 488.86 165.704 487.484 166.472C486.14 167.208 484.572 167.576 482.78 167.576ZM486.188 160.904C487.116 160.904 487.9 160.664 488.54 160.184C489.18 159.704 489.66 158.968 489.98 157.976C490.332 156.952 490.508 155.64 490.508 154.04C490.508 152.44 490.332 151.144 489.98 150.152C489.66 149.128 489.18 148.376 488.54 147.896C487.9 147.416 487.116 147.176 486.188 147.176C484.876 147.176 483.836 147.8 483.068 149.048C482.3 150.264 481.916 151.928 481.916 154.04C481.916 156.088 482.3 157.752 483.068 159.032C483.868 160.28 484.908 160.904 486.188 160.904ZM504.735 167V141.08H514.047V167H504.735ZM504.591 138.488V131.96H514.191V138.488H504.591ZM531.802 167.576C528.986 167.576 526.522 167.016 524.41 165.896C522.33 164.776 520.698 163.208 519.514 161.192C518.362 159.144 517.786 156.76 517.786 154.04C517.786 151.32 518.362 148.952 519.514 146.936C520.698 144.92 522.33 143.352 524.41 142.232C526.522 141.08 528.986 140.504 531.802 140.504C534.618 140.504 537.066 141.08 539.146 142.232C541.258 143.352 542.89 144.92 544.042 146.936C545.226 148.952 545.818 151.32 545.818 154.04C545.818 156.76 545.226 159.144 544.042 161.192C542.89 163.208 541.258 164.776 539.146 165.896C537.066 167.016 534.618 167.576 531.802 167.576ZM531.802 160.904C533.242 160.904 534.346 160.312 535.114 159.128C535.882 157.944 536.266 156.248 536.266 154.04C536.266 151.864 535.882 150.184 535.114 149C534.346 147.784 533.242 147.176 531.802 147.176C530.362 147.176 529.258 147.784 528.49 149C527.722 150.184 527.338 151.864 527.338 154.04C527.338 156.248 527.722 157.944 528.49 159.128C529.258 160.312 530.362 160.904 531.802 160.904Z" fill="black"/>
</svg>
