<svg width="600" height="300" viewBox="0 0 600 300" fill="none" xmlns="http://www.w3.org/2000/svg">
<path d="M60.4456 150.487C60.6545 148.881 61.3632 147.21 62.2639 146.201C63.4225 144.903 64.2833 144.284 65.5542 143.835C68.2666 142.875 71.2151 143.525 73.3645 145.557C74.8129 146.927 75.5698 148.339 76.0539 150.576C76.3308 151.856 76.0458 153.779 75.3374 155.411C75.0313 156.115 74.8203 156.402 73.7759 157.533C72.7233 158.674 72.4634 158.897 71.7536 159.273C70.3505 160.016 69.5262 160.235 68.1317 160.235C66.3171 160.235 64.5257 159.602 63.195 158.49C62.2412 157.693 61.542 156.645 60.9192 155.079C60.5125 154.057 60.2776 151.778 60.4456 150.487Z" fill="white"/>
<path d="M75.5941 81.857C75.7598 79.6324 76.8021 77.6547 78.5019 76.339C79.752 75.3718 80.9098 74.9916 82.5809 75.0001C84.2889 75.0087 85.4219 75.3705 86.7969 76.3463C88.3236 77.4301 89.5227 79.1745 89.8686 80.8154C89.9289 81.1019 90.0211 81.5024 90.0734 81.7058C90.1821 82.1286 90.12 84.1266 89.9763 84.8255C89.6911 86.213 89.2291 87.0911 88.2006 88.2014C87.0538 89.4394 86.0487 90.0714 84.5112 90.521C83.806 90.7274 81.3073 90.7516 80.5687 90.5593C79.207 90.2052 77.5553 88.9719 76.7757 87.7279C76.2863 86.9467 75.8677 85.9064 75.6918 85.0338C75.5565 84.3622 75.5128 82.9454 75.5941 81.857Z" fill="white"/>
<path d="M70.1765 177.421C70.4702 175.77 71.1306 174.687 72.5326 173.557C73.6259 172.676 74.7038 172.317 76.257 172.317C77.4645 172.317 78.1245 172.474 79.0836 172.987C79.8674 173.407 80.9277 174.327 81.3466 174.952C82.3769 176.486 82.8652 178.933 82.4365 180.412C82.3571 180.686 82.2431 181.074 82.1833 181.275C82.067 181.664 81.5737 182.544 81.2761 182.892C80.9582 183.265 79.9583 184.157 79.5627 184.421C78.4302 185.178 76.753 185.56 75.4859 185.349C72.8984 184.918 70.989 183.189 70.2958 180.65C70.0864 179.882 70.0266 178.264 70.1765 177.421Z" fill="white"/>
<path d="M95.6316 217.73C95.6879 217.586 95.7935 217.32 95.8663 217.137C96.0179 216.757 96.6263 216.157 97.1181 215.903C97.3254 215.796 97.8152 215.708 98.3967 215.673C99.2811 215.62 99.3715 215.634 99.8686 215.898C100.453 216.21 100.959 216.784 101.26 217.48C101.551 218.154 101.533 219.253 101.22 219.932C100.719 221.016 100.298 221.407 99.2646 221.748C98.389 222.037 97.5025 221.88 96.7319 221.3C95.8721 220.653 95.2613 218.671 95.6316 217.73Z" fill="white"/>
<path d="M76.2179 199.904C76.5046 199.027 77.1939 198.377 78.2011 198.035C78.6944 197.867 78.8151 197.861 79.2861 197.984C80.1125 198.2 80.531 198.552 80.8604 199.31C81.3818 200.509 81.1674 201.922 80.3374 202.753C79.9699 203.122 79.849 203.179 79.2959 203.243C77.6756 203.432 76.6935 202.923 76.2637 201.674C76.0356 201.012 76.0224 200.503 76.2179 199.904Z" fill="white"/>
<path d="M87.3275 186.649C87.7698 185.679 88.3046 185.29 89.3452 185.181C90.499 185.061 91.2972 185.481 91.8171 186.483C92.072 186.973 92.1145 187.16 92.1133 187.785C92.1105 189.457 91.032 190.694 89.5755 190.693C88.9035 190.693 88.1653 190.37 87.75 189.894C87.0843 189.132 86.8867 187.615 87.3275 186.649Z" fill="white"/>
<path d="M57.8953 171.536C58.2677 170.287 58.9255 169.695 60.1095 169.544C61.9196 169.313 63.2948 171.18 62.695 173.054C62.5139 173.619 62.3516 173.835 61.7558 174.297C61.3474 174.615 61.2081 174.662 60.5901 174.696C59.4039 174.761 58.64 174.315 58.1569 173.275C57.8043 172.516 57.7368 172.067 57.8953 171.536Z" fill="white"/>
<path d="M67.4439 101.448C67.8708 100.335 68.4797 99.7374 69.6456 99.2883C70.5991 98.9208 71.4372 98.9539 72.2326 99.3903C73.1088 99.8711 73.608 100.438 73.9562 101.348C74.3033 102.254 74.3305 102.957 74.053 103.834C73.6665 105.056 72.8328 105.94 71.5868 106.452C70.785 106.782 70.3498 106.75 69.3457 106.293C68.3358 105.833 67.8291 105.274 67.4471 104.197C67.0644 103.119 67.0637 102.439 67.4439 101.448Z" fill="white"/>
<path d="M75.3914 134.411C75.7334 133.408 76.6408 132.454 77.4731 132.224C78.0553 132.063 79.421 132.086 79.8869 132.265C81.0584 132.714 81.8263 133.78 82.0988 135.336C82.2436 136.162 81.7527 137.553 81.0371 138.343C80.3781 139.071 79.6035 139.401 78.5566 139.401C77.0961 139.401 76.161 138.765 75.5159 137.332C75.1654 136.554 75.1095 135.239 75.3914 134.411Z" fill="white"/>
<path d="M53.1472 135.075C53.3516 134.443 53.6142 134.025 54.0929 133.568C54.6812 133.007 55.2157 132.8 56.0874 132.798C56.739 132.797 56.9371 132.841 57.408 133.093C58.4662 133.66 59.1446 134.861 59.1503 136.177C59.1547 137.19 58.5675 138.408 57.8294 138.919C57.0816 139.436 55.8295 139.549 54.9263 139.182C53.4898 138.597 52.6412 136.638 53.1472 135.075Z" fill="white"/>
<path d="M63.3588 78.2115C63.4835 77.9251 63.7365 77.5347 63.9208 77.3441C64.2211 77.0339 64.411 76.9448 65.2235 76.7319C65.498 76.66 66.4073 76.8781 66.8718 77.127C68.0088 77.7363 68.6789 79.5716 68.1615 80.6592C67.7211 81.5854 67.3271 81.9359 66.3569 82.2649C65.7787 82.4609 65.4037 82.4451 64.6416 82.1926C64.1646 82.0343 63.3697 81.1248 63.2296 80.5767C63.0487 79.8682 63.1075 78.7879 63.3588 78.2115Z" fill="white"/>
<path d="M64.9869 124.914C65.1468 124.428 65.4543 123.889 65.7364 123.601C66.1331 123.196 66.62 123.048 67.611 123.031C68.9195 123.008 69.3054 123.258 69.7845 124.435C70.4079 125.968 69.8027 127.609 68.3574 128.304C67.685 128.627 67.4165 128.636 66.7318 128.358C66.0616 128.085 65.3353 127.252 65.0532 126.432C64.8261 125.772 64.812 125.446 64.9869 124.914Z" fill="white"/>
<path d="M75.5937 114.449C75.8463 113.126 76.2888 112.291 77.3593 111.115C78.7314 109.609 79.9419 109.094 82.1149 109.094C84.2104 109.094 85.7914 109.958 87.2128 111.88C88.0308 112.987 88.449 113.996 88.7658 115.629C89.0141 116.908 89.5907 118.621 89.984 119.249C90.2912 119.739 91.116 120.643 91.5717 120.988C91.8223 121.178 92.2401 121.36 92.6257 121.448C94.5861 121.893 96.1063 121.311 97.3182 119.649C98.0637 118.628 98.3843 117.967 98.8281 116.541C99.1725 115.435 99.1849 115.345 99.1853 113.937C99.1859 112.416 99.1365 112.164 98.5119 110.5C98.2291 109.746 96.7127 107.544 95.4904 106.112C94.2187 104.622 93.2458 102.835 92.7759 101.126C92.3995 99.7574 92.3461 97.7341 92.6421 96.0696C93.0672 93.6799 93.7699 92.1983 95.2514 90.5691C96.8301 88.8332 98.6731 87.7008 100.69 87.2276C100.98 87.1594 101.498 87.0367 101.84 86.9547C102.762 86.7338 103.825 86.6676 104.475 86.7901C107.341 87.3305 108.395 87.7469 110.098 89.0122C112.293 90.6424 113.811 93.1572 114.392 96.1265C114.553 96.9512 114.559 99.7101 114.4 100.449C114.217 101.304 113.991 102.154 113.916 102.272C113.88 102.329 113.771 102.61 113.674 102.897C113.086 104.634 111.547 106.441 108.643 108.804C106.174 110.813 105.444 111.586 104.924 112.74C103.629 115.614 103.948 118.549 105.792 120.724C106.346 121.377 107.021 121.82 107.877 122.093C108.769 122.378 109.337 122.382 110.266 122.109C111.924 121.623 113.134 120.663 114.37 118.853C115.219 117.61 115.159 117.721 116.334 115.239C116.89 114.065 117.526 112.776 117.747 112.375C117.968 111.974 118.219 111.51 118.306 111.344C118.393 111.177 118.664 110.749 118.907 110.392C119.151 110.035 119.492 109.515 119.665 109.236C120.013 108.675 121.069 107.224 122.117 105.865C122.863 104.899 125.079 102.515 125.842 101.857C126.106 101.631 126.496 101.279 126.708 101.077C128.165 99.6916 130.504 98.0115 132.556 96.8771C133.724 96.2309 134.886 95.6578 135.029 95.6578C135.093 95.6578 135.187 95.6155 135.237 95.5636C135.319 95.4793 137.247 94.7216 137.724 94.5869C137.829 94.5571 138.411 94.3698 139.017 94.1711C139.624 93.9719 140.313 93.7592 140.55 93.6982C141.879 93.3561 142.329 93.2501 143.329 93.0447C143.935 92.9201 144.582 92.7983 144.766 92.7735C147.281 92.4369 148.583 92.289 149.701 92.2131C150.439 92.1631 151.142 92.0958 151.265 92.0636C151.65 91.9615 159.341 92.0059 160.193 92.1148C160.641 92.1723 161.298 92.2194 161.653 92.2198C162.008 92.2202 163.129 92.3344 164.144 92.4733C165.159 92.6123 166.162 92.7485 166.373 92.776C168.315 93.0303 172.99 94.05 174.566 94.5625C174.961 94.691 175.608 94.9016 176.003 95.0308C176.843 95.3051 179.438 96.2396 179.815 96.404C179.958 96.4661 180.161 96.5567 180.267 96.605C180.372 96.6535 180.803 96.8375 181.225 97.0139C182.555 97.5707 185.957 99.3739 187.261 100.214C188.77 101.186 190.815 102.765 191.834 103.746C192.379 104.271 194.766 106.868 195.099 107.299C196.14 108.646 197.23 110.413 197.838 111.741C198.64 113.491 198.717 113.693 199.185 115.239C199.799 117.267 200.141 119.36 200.218 121.548C200.269 122.983 200.172 124.047 199.758 126.622C199.507 128.183 198.436 130.982 197.545 132.406C196.143 134.646 194.257 136.727 192.483 137.99C190.321 139.529 188.769 140.18 185.872 140.761C184.961 140.943 182.992 140.999 182.009 140.87C181.001 140.738 179.811 140.501 179.309 140.333C176.632 139.44 175.195 138.56 173.675 136.882C172.572 135.664 172.175 135.047 171.786 133.949C171.231 132.383 171.491 130.865 172.431 130.176C172.598 130.054 173.028 129.823 173.387 129.663C174.779 129.043 175.434 128.633 176.039 128.006C177.139 126.864 177.718 125.653 178.012 123.878C178.117 123.244 178.225 122.686 178.253 122.637C178.281 122.588 178.175 121.932 178.019 121.178C177.606 119.186 177.038 118.033 175.811 116.691C174.168 114.893 171.873 113.421 169.248 112.482C167.618 111.899 166.454 111.634 163.834 111.249C161.064 110.842 156.341 111.414 153.725 112.473C151.52 113.366 149.233 114.949 147.833 116.554C147.06 117.44 146.414 118.473 145.856 119.718C145.663 120.148 145.464 120.589 145.413 120.698C145.362 120.808 145.196 121.434 145.043 122.09C144.798 123.147 144.766 123.462 144.766 124.878C144.766 126.304 144.796 126.6 145.047 127.653C145.528 129.681 146.02 130.761 147.339 132.686C148.701 134.675 150.949 136.736 153.821 138.628C155.075 139.453 158.587 141.348 159.87 141.891C160.14 142.005 160.549 142.191 160.78 142.305C161.337 142.58 162.929 143.257 163.017 143.257C163.055 143.257 163.222 143.324 163.388 143.404C163.554 143.485 164.186 143.747 164.792 143.987C165.398 144.226 166.11 144.511 166.373 144.62C166.637 144.729 167.413 145.032 168.098 145.294C169.836 145.959 170.638 146.276 170.972 146.433C171.131 146.507 171.799 146.788 172.458 147.057C173.79 147.602 174.897 148.08 175.476 148.36C175.687 148.462 176.139 148.673 176.482 148.829C177.141 149.128 181.246 151.322 181.896 151.721C182.106 151.851 182.538 152.116 182.854 152.31C186.115 154.313 189.584 157.201 192.486 160.332C193.313 161.224 194.198 162.258 194.453 162.631C194.707 163.003 195.115 163.565 195.359 163.881C196.088 164.82 197.552 166.994 197.77 167.458C197.881 167.696 198.124 168.148 198.309 168.463C198.741 169.196 199.679 171.159 200.007 172.018C200.147 172.383 200.341 172.869 200.438 173.098C200.673 173.652 201.107 174.948 201.107 175.094C201.107 175.158 201.168 175.337 201.242 175.492C201.316 175.647 201.492 176.25 201.634 176.831C201.775 177.413 201.952 178.124 202.026 178.41C202.303 179.488 202.661 181.726 202.842 183.514C203.006 185.138 203.054 188.464 202.931 189.711C202.743 191.628 202.552 193.149 202.408 193.878C202.334 194.25 202.233 194.789 202.184 195.076C202.038 195.918 201.517 197.934 201.242 198.721C201.101 199.122 200.91 199.684 200.816 199.971C200.414 201.192 199.584 203.074 198.566 205.075C198.076 206.038 197.466 207.009 196.673 208.092C196.24 208.684 195.584 209.583 195.217 210.09C194.652 210.869 192.403 213.302 191.238 214.394C190.905 214.706 190.756 214.835 189.274 216.088C188.189 217.004 185.871 218.565 184.258 219.464C182.401 220.5 178.88 222.056 177.584 222.414C177.426 222.458 177.189 222.542 177.057 222.601C176.925 222.659 176.645 222.757 176.434 222.818C176.223 222.879 175.749 223.019 175.38 223.128C173.262 223.759 170.016 224.428 168.194 224.612C167.667 224.664 167.02 224.758 166.756 224.82C166.045 224.986 157.658 225.071 156.172 224.926C152.794 224.598 150.447 224.182 147.737 223.431C145.629 222.846 145.893 222.935 143.425 221.993C142.659 221.701 141.167 221.035 141.082 220.948C141.032 220.896 140.938 220.854 140.872 220.854C140.678 220.854 139.164 220.04 137.676 219.136C135.038 217.533 132.683 215.64 130.873 213.669C129.008 211.639 127.679 209.908 126.955 208.564C126.723 208.134 126.417 207.595 126.274 207.366C125.996 206.918 125.34 205.546 125.079 204.866C124.991 204.637 124.883 204.356 124.838 204.241C124.793 204.127 124.714 203.892 124.661 203.721C124.609 203.549 124.453 203.08 124.314 202.679C123.815 201.231 123.447 199.549 123.289 197.992C123.149 196.62 123.146 192.436 123.284 191.638C123.755 188.908 124.451 186.853 125.612 184.764C127.112 182.066 130.194 179.34 132.885 178.33C134.548 177.707 136.102 177.424 137.884 177.423C138.657 177.422 139.498 177.464 139.753 177.518C140.007 177.571 140.495 177.669 140.838 177.735C144.398 178.427 148.14 181.643 149.081 184.821C149.422 185.973 149.51 187.076 149.331 187.942C149.157 188.777 148.911 189.222 148.492 189.457C148.083 189.688 146.919 190.104 146.303 190.24C145.232 190.477 143.791 191.538 143.15 192.56C142.764 193.176 142.155 194.465 141.962 195.076C141.871 195.362 141.731 196.011 141.651 196.517C141.521 197.333 141.52 197.53 141.645 198.236C141.976 200.117 142.625 201.358 143.952 202.64C145.179 203.828 147.331 205.139 149.059 205.752C155.359 207.987 163.499 207.387 168.771 204.298C171.219 202.863 172.778 201.357 174.257 198.998C174.708 198.28 175.435 196.545 175.683 195.596C176.27 193.349 176.3 189.819 175.749 187.732C175.56 187.018 175.136 185.736 175.043 185.597C175.004 185.54 174.809 185.165 174.609 184.764C173.962 183.466 173.354 182.598 172.345 181.531C170.449 179.525 168.608 178.238 165.511 176.749C164.59 176.306 162.749 175.613 161.487 175.234C161.065 175.107 160.634 174.965 160.528 174.918C160.276 174.805 158.632 174.368 157.606 174.142C157.158 174.044 156.533 173.901 156.217 173.826C155.9 173.751 155.362 173.64 155.019 173.58C154.676 173.52 154.022 173.399 153.564 173.31C153.107 173.223 152.604 173.151 152.446 173.151C152.288 173.151 151.951 173.107 151.696 173.053C150.734 172.849 149.947 172.725 148.647 172.57C147.359 172.416 146.746 172.351 144.431 172.117C143.851 172.058 142.967 171.938 142.467 171.848C141.553 171.685 139.904 171.444 138.922 171.329C138.632 171.295 138.179 171.225 137.915 171.172C137.652 171.119 136.941 170.977 136.334 170.856C132.82 170.155 131.787 169.883 129.388 169.028C127.114 168.218 125.311 167.356 123.351 166.143C121.819 165.195 120.048 163.83 119.02 162.806C118.465 162.253 118.309 162.313 118.121 163.156C117.968 163.842 117.79 167.252 117.817 168.984C117.825 169.471 117.85 173.573 117.872 178.099C117.897 183.105 117.955 186.817 118.022 187.577C118.082 188.264 118.174 189.571 118.226 190.481C118.278 191.392 118.366 192.446 118.422 192.825C118.477 193.203 118.565 193.841 118.617 194.242C118.744 195.213 119.324 198.224 119.56 199.138C119.959 200.676 120.036 200.939 120.382 201.95C120.578 202.523 120.8 203.179 120.876 203.408C121.077 204.013 122.306 206.74 122.706 207.47C124.354 210.476 126.129 212.785 128.43 214.921C128.978 215.429 129.388 215.889 129.388 215.995C129.388 216.194 129.35 216.22 128.053 216.896C127.193 217.344 126.332 217.95 124.645 219.294C123.359 220.318 121.536 221.271 120.066 221.686C119.028 221.979 116.673 222.163 115.83 222.017C115.487 221.957 114.862 221.856 114.44 221.792C111.827 221.394 109.072 219.606 107.14 217.053C106.722 216.501 106.056 215.413 106.056 215.283C106.056 215.257 105.951 214.988 105.822 214.686C105.453 213.823 105.128 212.76 104.457 210.23C103.881 208.058 103.338 206.964 102.322 205.93C101.58 205.175 100.788 204.71 100.243 204.71C99.7478 204.71 99.2001 205.13 98.2572 206.233C97.5787 207.028 96.3901 208.029 95.8723 208.243C95.3361 208.464 93.7567 208.687 93.2301 208.616C91.7976 208.421 90.8525 207.818 90.2385 206.706C89.6517 205.643 89.4307 204.747 89.4384 203.46C89.4453 202.333 89.6005 201.641 90.0809 200.596C90.4514 199.79 92.225 198.155 92.925 197.974C93.0591 197.94 93.2119 197.877 93.2646 197.836C93.3173 197.794 93.7916 197.609 94.3186 197.425C96.4137 196.691 97.2586 195.805 97.9246 193.644C98.1999 192.751 98.207 192.676 98.1756 191.036C98.1505 189.72 98.088 189.057 97.8927 188.037C97.6379 186.706 97.471 185.972 97.3372 185.597C97.2964 185.483 97.1249 184.897 96.9558 184.295C96.2803 181.89 94.4 177.521 93.213 175.598C93.0716 175.369 92.6414 174.643 92.2568 173.984C91.8723 173.325 91.295 172.411 90.9738 171.953C90.3149 171.012 88.4678 168.997 87.6326 168.307C86.8805 167.686 85.6208 167.046 84.559 166.746C83.4216 166.425 82.8739 166.165 82.1448 165.599C81.1004 164.789 80.5151 163.431 80.5902 161.991C80.6251 161.32 80.6793 161.114 80.9317 160.686C81.0967 160.407 81.3556 160.049 81.5072 159.891C81.8351 159.55 82.9449 159.089 83.4404 159.089C83.7915 159.089 84.4683 159.292 85.0365 159.567C85.3637 159.725 86.5832 160.996 87.556 162.193C88.4369 163.276 89.0521 163.716 90.207 164.089C90.9322 164.323 92.1606 164.051 93.4064 163.381C94.4192 162.836 95.2754 161.901 95.7986 160.768C96.5335 159.177 96.5187 158.178 95.7392 156.755C95.2658 155.89 95.1104 155.749 93.0496 154.32C92.5302 153.96 91.9996 153.56 91.8704 153.432C91.7413 153.303 91.4757 153.066 91.28 152.906C90.8166 152.524 89.5881 150.777 89.2088 149.96C88.77 149.014 88.33 147.557 88.33 147.052C88.33 146.808 88.2654 146.242 88.1863 145.792C88.0193 144.844 88.0044 144.078 88.1366 143.264C88.1886 142.945 88.2951 142.216 88.3739 141.643C88.5506 140.357 88.6759 139.762 89.1421 137.998C89.6797 135.964 89.9554 134.14 89.9533 132.633C89.9493 130.001 89.2908 127.929 87.9624 126.369C86.7867 124.989 85.5411 124.297 83.3954 123.833C80.4145 123.187 79.0175 122.578 77.7205 121.359C76.3563 120.076 75.8438 119.041 75.4937 116.862C75.3607 116.034 75.3799 115.57 75.5937 114.449ZM196.737 186.014C195.93 183.748 194.361 180.467 193.449 179.14C193.252 178.853 192.965 178.428 192.811 178.195C191.702 176.518 189.833 174.362 188.061 172.714C185.883 170.689 181.885 168.076 178.973 166.774C178.578 166.598 178.211 166.418 178.159 166.375C177.835 166.112 173.34 164.357 171.499 163.776C171.104 163.651 170.674 163.503 170.544 163.446C170.308 163.344 168.873 162.898 168.242 162.732C168.057 162.683 167.604 162.547 167.236 162.428C166.867 162.309 166.241 162.123 165.846 162.014C164.038 161.515 158.246 159.919 157.558 159.73C157.136 159.615 156.49 159.445 156.121 159.352C155.752 159.259 155.342 159.144 155.21 159.096C155.079 159.049 154.798 158.958 154.588 158.895C153.817 158.665 151.705 158.027 151.426 157.939C151.268 157.889 150.901 157.779 150.611 157.694C150.321 157.609 149.847 157.464 149.557 157.372C149.267 157.28 148.815 157.139 148.551 157.058C147.312 156.681 144.378 155.578 142.371 154.735C137.861 152.841 134.453 150.929 131.065 148.391C130.727 148.138 128.727 146.465 128.669 146.387C128.643 146.352 128.298 146.036 127.903 145.686C126.813 144.721 124.095 141.669 123.295 140.512C121.051 137.267 119.396 133.416 118.746 129.925C118.334 127.712 118.263 127.193 118.129 125.447C118.074 124.73 118.01 124.087 117.987 124.016C117.904 123.764 117.681 124.007 117.316 124.747C116.646 126.103 115.689 127.498 114.994 128.13C114.502 128.578 113.504 129.148 112.955 129.295C109.771 130.147 107.912 131.342 107.11 133.052C107.011 133.261 106.814 133.78 106.67 134.204C106.422 134.935 106.408 135.076 106.407 136.803C106.405 138.526 106.42 138.679 106.673 139.511C107.067 140.807 107.354 141.355 108.012 142.069C108.617 142.728 109.186 143.098 110.272 143.542C110.79 143.754 111.161 143.811 112.476 143.883C113.346 143.931 114.236 143.944 114.454 143.913C114.983 143.838 115.382 144.098 115.593 144.655C115.681 144.889 115.813 145.234 115.887 145.422C115.961 145.61 116.021 145.838 116.021 145.928C116.021 146.114 116.776 148.566 116.882 148.726C116.92 148.783 116.976 148.924 117.006 149.038C117.63 151.455 120.302 156.032 122.133 157.823C124.309 159.95 125.942 161.168 128.286 162.411C131.473 164.102 134.244 165.015 139.065 165.963C140.806 166.305 144.771 166.805 146.491 166.9C149.767 167.081 151.648 167.22 152.24 167.324C152.583 167.384 154.178 167.481 155.785 167.54C159.508 167.675 162.605 167.938 164.361 168.268C164.677 168.327 165.41 168.444 165.99 168.528C168.224 168.852 169.293 169.056 171.356 169.555C171.725 169.645 172.199 169.758 172.41 169.807C173.53 170.069 175.702 170.746 177.296 171.331C178.994 171.954 179.16 172.022 180.338 172.568C180.904 172.831 181.39 173.046 181.418 173.046C181.446 173.046 182.255 173.464 183.216 173.975C187.453 176.229 190.892 178.963 193.463 182.122C194.669 183.604 195.801 185.354 196.249 186.428C196.479 186.98 196.882 187.542 196.993 187.468C197.148 187.364 197.081 186.98 196.737 186.014Z" fill="white"/>
<path d="M229.976 167V132.92H239.384V167H229.976ZM256.738 167.576C253.826 167.576 251.41 167.208 249.49 166.472C247.57 165.704 246.114 164.664 245.122 163.352C244.13 162.04 243.57 160.536 243.442 158.84L252.802 158.6C252.994 159.624 253.41 160.392 254.05 160.904C254.69 161.384 255.602 161.624 256.786 161.624C257.778 161.624 258.514 161.464 258.994 161.144C259.506 160.824 259.762 160.36 259.762 159.752C259.762 159.304 259.65 158.936 259.426 158.648C259.202 158.328 258.77 158.056 258.13 157.832C257.522 157.608 256.61 157.4 255.394 157.208C252.482 156.728 250.194 156.168 248.53 155.528C246.898 154.888 245.746 154.056 245.074 153.032C244.402 151.976 244.066 150.648 244.066 149.048C244.066 146.456 245.106 144.392 247.186 142.856C249.266 141.288 252.45 140.504 256.738 140.504C259.394 140.504 261.618 140.888 263.41 141.656C265.202 142.424 266.578 143.512 267.538 144.92C268.53 146.296 269.122 147.928 269.314 149.816L260.098 150.104C260.034 149.304 259.842 148.632 259.522 148.088C259.234 147.544 258.85 147.144 258.37 146.888C257.89 146.6 257.314 146.456 256.642 146.456C255.746 146.456 255.01 146.664 254.434 147.08C253.89 147.464 253.618 148.024 253.618 148.76C253.618 149.24 253.73 149.64 253.954 149.96C254.21 150.28 254.626 150.536 255.202 150.728C255.778 150.92 256.546 151.08 257.506 151.208C260.354 151.56 262.642 152.088 264.37 152.792C266.098 153.496 267.346 154.408 268.114 155.528C268.914 156.616 269.314 157.944 269.314 159.512C269.314 161.24 268.818 162.712 267.826 163.928C266.834 165.112 265.394 166.024 263.506 166.664C261.65 167.272 259.394 167.576 256.738 167.576ZM273.047 167V141.08H281.399L281.687 147.128L281.015 146.744C281.367 145.4 281.895 144.264 282.599 143.336C283.335 142.408 284.199 141.704 285.191 141.224C286.215 140.744 287.319 140.504 288.503 140.504C290.615 140.504 292.311 141.144 293.591 142.424C294.871 143.672 295.703 145.336 296.087 147.416L295.127 147.512C295.447 145.976 295.975 144.696 296.711 143.672C297.447 142.616 298.327 141.832 299.351 141.32C300.407 140.776 301.559 140.504 302.807 140.504C304.535 140.504 306.055 140.872 307.367 141.608C308.679 142.344 309.703 143.448 310.439 144.92C311.207 146.36 311.591 148.168 311.591 150.344V167H302.279V153.08C302.279 151.256 302.055 149.896 301.607 149C301.191 148.104 300.439 147.656 299.351 147.656C298.679 147.656 298.119 147.864 297.671 148.28C297.255 148.696 296.935 149.32 296.711 150.152C296.487 150.952 296.375 151.928 296.375 153.08V167H288.215V153.08C288.215 151.256 288.007 149.896 287.591 149C287.175 148.104 286.423 147.656 285.335 147.656C284.663 147.656 284.103 147.864 283.655 148.28C283.239 148.696 282.919 149.32 282.695 150.152C282.471 150.952 282.359 151.928 282.359 153.08V167H273.047ZM324.474 167.576C321.754 167.576 319.514 166.952 317.754 165.704C315.994 164.456 315.114 162.712 315.114 160.472C315.114 158.168 315.866 156.408 317.37 155.192C318.906 153.944 321.082 153.016 323.898 152.408L331.674 150.776C331.674 149.432 331.386 148.408 330.81 147.704C330.234 147 329.434 146.648 328.41 146.648C327.322 146.648 326.474 146.92 325.866 147.464C325.29 147.976 324.922 148.744 324.762 149.768L315.546 149.48C316.058 146.344 317.418 144.072 319.626 142.664C321.834 141.224 324.762 140.504 328.41 140.504C332.634 140.504 335.786 141.416 337.866 143.24C339.946 145.064 340.986 147.832 340.986 151.544V159.128C340.986 159.96 341.114 160.504 341.37 160.76C341.658 161.016 342.042 161.144 342.522 161.144H343.05V167C342.762 167.096 342.298 167.176 341.658 167.24C341.018 167.336 340.394 167.384 339.786 167.384C338.858 167.384 337.898 167.224 336.906 166.904C335.914 166.584 335.082 165.976 334.41 165.08C333.738 164.152 333.402 162.808 333.402 161.048L334.074 161.816C333.722 163 333.146 164.024 332.346 164.888C331.546 165.752 330.49 166.424 329.178 166.904C327.898 167.352 326.33 167.576 324.474 167.576ZM327.066 161.72C327.93 161.72 328.698 161.544 329.37 161.192C330.074 160.84 330.634 160.312 331.05 159.608C331.466 158.872 331.674 157.944 331.674 156.824V155.96L327.45 157.016C326.65 157.208 325.978 157.528 325.434 157.976C324.922 158.392 324.666 158.936 324.666 159.608C324.666 160.28 324.858 160.808 325.242 161.192C325.626 161.544 326.234 161.72 327.066 161.72ZM345.797 167V141.08H355.109V167H345.797ZM345.653 138.488V131.96H355.253V138.488H345.653ZM368.248 167C365.752 167 363.816 166.376 362.44 165.128C361.064 163.88 360.376 161.848 360.376 159.032V132.92H369.688V157.976C369.688 158.872 369.896 159.512 370.312 159.896C370.728 160.248 371.32 160.424 372.088 160.424H373.48V167H368.248ZM402.022 167.768C398.886 167.768 396.214 167.272 394.006 166.28C391.798 165.288 390.086 163.88 388.87 162.056C387.654 160.232 386.966 158.072 386.806 155.576L396.166 155.144C396.326 156.264 396.646 157.224 397.126 158.024C397.606 158.792 398.246 159.384 399.046 159.8C399.878 160.184 400.902 160.376 402.118 160.376C403.078 160.376 403.894 160.28 404.566 160.088C405.238 159.864 405.75 159.528 406.102 159.08C406.454 158.632 406.63 158.072 406.63 157.4C406.63 156.792 406.47 156.264 406.15 155.816C405.862 155.336 405.27 154.92 404.374 154.568C403.51 154.184 402.214 153.816 400.486 153.464C397.382 152.824 394.87 152.088 392.95 151.256C391.03 150.392 389.622 149.288 388.726 147.944C387.862 146.6 387.43 144.888 387.43 142.808C387.43 140.696 387.974 138.84 389.062 137.24C390.15 135.64 391.718 134.392 393.766 133.496C395.814 132.6 398.278 132.152 401.158 132.152C404.198 132.152 406.742 132.664 408.79 133.688C410.838 134.712 412.422 136.12 413.542 137.912C414.694 139.704 415.382 141.784 415.606 144.152L406.342 144.536C406.278 143.48 406.022 142.584 405.574 141.848C405.126 141.112 404.518 140.552 403.75 140.168C403.014 139.752 402.118 139.544 401.062 139.544C399.718 139.544 398.678 139.816 397.942 140.36C397.206 140.904 396.838 141.624 396.838 142.52C396.838 143.224 397.014 143.816 397.366 144.296C397.75 144.776 398.358 145.176 399.19 145.496C400.054 145.816 401.222 146.104 402.694 146.36C406.054 146.936 408.71 147.72 410.662 148.712C412.614 149.704 413.99 150.888 414.79 152.264C415.622 153.64 416.038 155.224 416.038 157.016C416.038 159.224 415.478 161.144 414.358 162.776C413.27 164.376 411.67 165.608 409.558 166.472C407.478 167.336 404.966 167.768 402.022 167.768ZM431.757 167C428.845 167 426.717 166.328 425.373 164.984C424.029 163.608 423.357 161.432 423.357 158.456V134.984H432.669V157.112C432.669 158.392 432.925 159.272 433.437 159.752C433.981 160.2 434.797 160.424 435.885 160.424H439.437V167H431.757ZM418.941 147.656V141.08H439.437V147.656H418.941ZM451.841 167.576C449.121 167.576 447.009 166.728 445.505 165.032C444.033 163.304 443.297 160.888 443.297 157.784V141.08H452.609V155.672C452.609 157.336 452.833 158.552 453.281 159.32C453.729 160.056 454.433 160.424 455.393 160.424C456.513 160.424 457.361 160.024 457.937 159.224C458.513 158.392 458.801 157.048 458.801 155.192V141.08H468.113V167H459.761L459.425 158.84L460.481 158.936C460.225 161.848 459.377 164.024 457.937 165.464C456.497 166.872 454.465 167.576 451.841 167.576ZM482.28 167.576C480.136 167.576 478.28 167.032 476.712 165.944C475.176 164.824 473.976 163.256 473.112 161.24C472.28 159.192 471.864 156.792 471.864 154.04C471.864 151.288 472.296 148.904 473.16 146.888C474.024 144.84 475.24 143.272 476.808 142.184C478.376 141.064 480.2 140.504 482.28 140.504C484.2 140.504 485.8 140.888 487.08 141.656C488.36 142.424 489.336 143.48 490.008 144.824V132.92H499.32V167H490.248L490.104 163.256C489.4 164.632 488.36 165.704 486.984 166.472C485.64 167.208 484.072 167.576 482.28 167.576ZM485.688 160.904C486.616 160.904 487.4 160.664 488.04 160.184C488.68 159.704 489.16 158.968 489.48 157.976C489.832 156.952 490.008 155.64 490.008 154.04C490.008 152.44 489.832 151.144 489.48 150.152C489.16 149.128 488.68 148.376 488.04 147.896C487.4 147.416 486.616 147.176 485.688 147.176C484.376 147.176 483.336 147.8 482.568 149.048C481.8 150.264 481.416 151.928 481.416 154.04C481.416 156.088 481.8 157.752 482.568 159.032C483.368 160.28 484.408 160.904 485.688 160.904ZM504.235 167V141.08H513.547V167H504.235ZM504.091 138.488V131.96H513.691V138.488H504.091ZM531.302 167.576C528.486 167.576 526.022 167.016 523.91 165.896C521.83 164.776 520.198 163.208 519.014 161.192C517.862 159.144 517.286 156.76 517.286 154.04C517.286 151.32 517.862 148.952 519.014 146.936C520.198 144.92 521.83 143.352 523.91 142.232C526.022 141.08 528.486 140.504 531.302 140.504C534.118 140.504 536.566 141.08 538.646 142.232C540.758 143.352 542.39 144.92 543.542 146.936C544.726 148.952 545.318 151.32 545.318 154.04C545.318 156.76 544.726 159.144 543.542 161.192C542.39 163.208 540.758 164.776 538.646 165.896C536.566 167.016 534.118 167.576 531.302 167.576ZM531.302 160.904C532.742 160.904 533.846 160.312 534.614 159.128C535.382 157.944 535.766 156.248 535.766 154.04C535.766 151.864 535.382 150.184 534.614 149C533.846 147.784 532.742 147.176 531.302 147.176C529.862 147.176 528.758 147.784 527.99 149C527.222 150.184 526.838 151.864 526.838 154.04C526.838 156.248 527.222 157.944 527.99 159.128C528.758 160.312 529.862 160.904 531.302 160.904Z" fill="white"/>
</svg>
