<svg width="500" height="300" viewBox="0 0 500 300" fill="none" xmlns="http://www.w3.org/2000/svg">
<path d="M92.976 167V132.92H102.384V167H92.976ZM119.738 167.576C116.826 167.576 114.41 167.208 112.49 166.472C110.57 165.704 109.114 164.664 108.122 163.352C107.13 162.04 106.57 160.536 106.442 158.84L115.802 158.6C115.994 159.624 116.41 160.392 117.05 160.904C117.69 161.384 118.602 161.624 119.786 161.624C120.778 161.624 121.514 161.464 121.994 161.144C122.506 160.824 122.762 160.36 122.762 159.752C122.762 159.304 122.65 158.936 122.426 158.648C122.202 158.328 121.77 158.056 121.13 157.832C120.522 157.608 119.61 157.4 118.394 157.208C115.482 156.728 113.194 156.168 111.53 155.528C109.898 154.888 108.746 154.056 108.074 153.032C107.402 151.976 107.066 150.648 107.066 149.048C107.066 146.456 108.106 144.392 110.186 142.856C112.266 141.288 115.45 140.504 119.738 140.504C122.394 140.504 124.618 140.888 126.41 141.656C128.202 142.424 129.578 143.512 130.538 144.92C131.53 146.296 132.122 147.928 132.314 149.816L123.098 150.104C123.034 149.304 122.842 148.632 122.522 148.088C122.234 147.544 121.85 147.144 121.37 146.888C120.89 146.6 120.314 146.456 119.642 146.456C118.746 146.456 118.01 146.664 117.434 147.08C116.89 147.464 116.618 148.024 116.618 148.76C116.618 149.24 116.73 149.64 116.954 149.96C117.21 150.28 117.626 150.536 118.202 150.728C118.778 150.92 119.546 151.08 120.506 151.208C123.354 151.56 125.642 152.088 127.37 152.792C129.098 153.496 130.346 154.408 131.114 155.528C131.914 156.616 132.314 157.944 132.314 159.512C132.314 161.24 131.818 162.712 130.826 163.928C129.834 165.112 128.394 166.024 126.506 166.664C124.65 167.272 122.394 167.576 119.738 167.576ZM136.047 167V141.08H144.399L144.687 147.128L144.015 146.744C144.367 145.4 144.895 144.264 145.599 143.336C146.335 142.408 147.199 141.704 148.191 141.224C149.215 140.744 150.319 140.504 151.503 140.504C153.615 140.504 155.311 141.144 156.591 142.424C157.871 143.672 158.703 145.336 159.087 147.416L158.127 147.512C158.447 145.976 158.975 144.696 159.711 143.672C160.447 142.616 161.327 141.832 162.351 141.32C163.407 140.776 164.559 140.504 165.807 140.504C167.535 140.504 169.055 140.872 170.367 141.608C171.679 142.344 172.703 143.448 173.439 144.92C174.207 146.36 174.591 148.168 174.591 150.344V167H165.279V153.08C165.279 151.256 165.055 149.896 164.607 149C164.191 148.104 163.439 147.656 162.351 147.656C161.679 147.656 161.119 147.864 160.671 148.28C160.255 148.696 159.935 149.32 159.711 150.152C159.487 150.952 159.375 151.928 159.375 153.08V167H151.215V153.08C151.215 151.256 151.007 149.896 150.591 149C150.175 148.104 149.423 147.656 148.335 147.656C147.663 147.656 147.103 147.864 146.655 148.28C146.239 148.696 145.919 149.32 145.695 150.152C145.471 150.952 145.359 151.928 145.359 153.08V167H136.047ZM187.474 167.576C184.754 167.576 182.514 166.952 180.754 165.704C178.994 164.456 178.114 162.712 178.114 160.472C178.114 158.168 178.866 156.408 180.37 155.192C181.906 153.944 184.082 153.016 186.898 152.408L194.674 150.776C194.674 149.432 194.386 148.408 193.81 147.704C193.234 147 192.434 146.648 191.41 146.648C190.322 146.648 189.474 146.92 188.866 147.464C188.29 147.976 187.922 148.744 187.762 149.768L178.546 149.48C179.058 146.344 180.418 144.072 182.626 142.664C184.834 141.224 187.762 140.504 191.41 140.504C195.634 140.504 198.786 141.416 200.866 143.24C202.946 145.064 203.986 147.832 203.986 151.544V159.128C203.986 159.96 204.114 160.504 204.37 160.76C204.658 161.016 205.042 161.144 205.522 161.144H206.05V167C205.762 167.096 205.298 167.176 204.658 167.24C204.018 167.336 203.394 167.384 202.786 167.384C201.858 167.384 200.898 167.224 199.906 166.904C198.914 166.584 198.082 165.976 197.41 165.08C196.738 164.152 196.402 162.808 196.402 161.048L197.074 161.816C196.722 163 196.146 164.024 195.346 164.888C194.546 165.752 193.49 166.424 192.178 166.904C190.898 167.352 189.33 167.576 187.474 167.576ZM190.066 161.72C190.93 161.72 191.698 161.544 192.37 161.192C193.074 160.84 193.634 160.312 194.05 159.608C194.466 158.872 194.674 157.944 194.674 156.824V155.96L190.45 157.016C189.65 157.208 188.978 157.528 188.434 157.976C187.922 158.392 187.666 158.936 187.666 159.608C187.666 160.28 187.858 160.808 188.242 161.192C188.626 161.544 189.234 161.72 190.066 161.72ZM208.797 167V141.08H218.109V167H208.797ZM208.653 138.488V131.96H218.253V138.488H208.653ZM231.248 167C228.752 167 226.816 166.376 225.44 165.128C224.064 163.88 223.376 161.848 223.376 159.032V132.92H232.688V157.976C232.688 158.872 232.896 159.512 233.312 159.896C233.728 160.248 234.32 160.424 235.088 160.424H236.48V167H231.248ZM265.022 167.768C261.886 167.768 259.214 167.272 257.006 166.28C254.798 165.288 253.086 163.88 251.87 162.056C250.654 160.232 249.966 158.072 249.806 155.576L259.166 155.144C259.326 156.264 259.646 157.224 260.126 158.024C260.606 158.792 261.246 159.384 262.046 159.8C262.878 160.184 263.902 160.376 265.118 160.376C266.078 160.376 266.894 160.28 267.566 160.088C268.238 159.864 268.75 159.528 269.102 159.08C269.454 158.632 269.63 158.072 269.63 157.4C269.63 156.792 269.47 156.264 269.15 155.816C268.862 155.336 268.27 154.92 267.374 154.568C266.51 154.184 265.214 153.816 263.486 153.464C260.382 152.824 257.87 152.088 255.95 151.256C254.03 150.392 252.622 149.288 251.726 147.944C250.862 146.6 250.43 144.888 250.43 142.808C250.43 140.696 250.974 138.84 252.062 137.24C253.15 135.64 254.718 134.392 256.766 133.496C258.814 132.6 261.278 132.152 264.158 132.152C267.198 132.152 269.742 132.664 271.79 133.688C273.838 134.712 275.422 136.12 276.542 137.912C277.694 139.704 278.382 141.784 278.606 144.152L269.342 144.536C269.278 143.48 269.022 142.584 268.574 141.848C268.126 141.112 267.518 140.552 266.75 140.168C266.014 139.752 265.118 139.544 264.062 139.544C262.718 139.544 261.678 139.816 260.942 140.36C260.206 140.904 259.838 141.624 259.838 142.52C259.838 143.224 260.014 143.816 260.366 144.296C260.75 144.776 261.358 145.176 262.19 145.496C263.054 145.816 264.222 146.104 265.694 146.36C269.054 146.936 271.71 147.72 273.662 148.712C275.614 149.704 276.99 150.888 277.79 152.264C278.622 153.64 279.038 155.224 279.038 157.016C279.038 159.224 278.478 161.144 277.358 162.776C276.27 164.376 274.67 165.608 272.558 166.472C270.478 167.336 267.966 167.768 265.022 167.768ZM294.757 167C291.845 167 289.717 166.328 288.373 164.984C287.029 163.608 286.357 161.432 286.357 158.456V134.984H295.669V157.112C295.669 158.392 295.925 159.272 296.437 159.752C296.981 160.2 297.797 160.424 298.885 160.424H302.437V167H294.757ZM281.941 147.656V141.08H302.437V147.656H281.941ZM314.841 167.576C312.121 167.576 310.009 166.728 308.505 165.032C307.033 163.304 306.297 160.888 306.297 157.784V141.08H315.609V155.672C315.609 157.336 315.833 158.552 316.281 159.32C316.729 160.056 317.433 160.424 318.393 160.424C319.513 160.424 320.361 160.024 320.937 159.224C321.513 158.392 321.801 157.048 321.801 155.192V141.08H331.113V167H322.761L322.425 158.84L323.481 158.936C323.225 161.848 322.377 164.024 320.937 165.464C319.497 166.872 317.465 167.576 314.841 167.576ZM345.28 167.576C343.136 167.576 341.28 167.032 339.712 165.944C338.176 164.824 336.976 163.256 336.112 161.24C335.28 159.192 334.864 156.792 334.864 154.04C334.864 151.288 335.296 148.904 336.16 146.888C337.024 144.84 338.24 143.272 339.808 142.184C341.376 141.064 343.2 140.504 345.28 140.504C347.2 140.504 348.8 140.888 350.08 141.656C351.36 142.424 352.336 143.48 353.008 144.824V132.92H362.32V167H353.248L353.104 163.256C352.4 164.632 351.36 165.704 349.984 166.472C348.64 167.208 347.072 167.576 345.28 167.576ZM348.688 160.904C349.616 160.904 350.4 160.664 351.04 160.184C351.68 159.704 352.16 158.968 352.48 157.976C352.832 156.952 353.008 155.64 353.008 154.04C353.008 152.44 352.832 151.144 352.48 150.152C352.16 149.128 351.68 148.376 351.04 147.896C350.4 147.416 349.616 147.176 348.688 147.176C347.376 147.176 346.336 147.8 345.568 149.048C344.8 150.264 344.416 151.928 344.416 154.04C344.416 156.088 344.8 157.752 345.568 159.032C346.368 160.28 347.408 160.904 348.688 160.904ZM367.235 167V141.08H376.547V167H367.235ZM367.091 138.488V131.96H376.691V138.488H367.091ZM394.302 167.576C391.486 167.576 389.022 167.016 386.91 165.896C384.83 164.776 383.198 163.208 382.014 161.192C380.862 159.144 380.286 156.76 380.286 154.04C380.286 151.32 380.862 148.952 382.014 146.936C383.198 144.92 384.83 143.352 386.91 142.232C389.022 141.08 391.486 140.504 394.302 140.504C397.118 140.504 399.566 141.08 401.646 142.232C403.758 143.352 405.39 144.92 406.542 146.936C407.726 148.952 408.318 151.32 408.318 154.04C408.318 156.76 407.726 159.144 406.542 161.192C405.39 163.208 403.758 164.776 401.646 165.896C399.566 167.016 397.118 167.576 394.302 167.576ZM394.302 160.904C395.742 160.904 396.846 160.312 397.614 159.128C398.382 157.944 398.766 156.248 398.766 154.04C398.766 151.864 398.382 150.184 397.614 149C396.846 147.784 395.742 147.176 394.302 147.176C392.862 147.176 391.758 147.784 390.99 149C390.222 150.184 389.838 151.864 389.838 154.04C389.838 156.248 390.222 157.944 390.99 159.128C391.758 160.312 392.862 160.904 394.302 160.904Z" fill="white"/>
</svg>
